<svg width="385" height="118" viewBox="0 0 385 118" fill="none" xmlns="http://www.w3.org/2000/svg">
<path d="M87.6645 33V2.73818H91.329V16.2141H107.465V2.73818H111.129V33H107.465V19.4649H91.329V33H87.6645ZM117.993 33V10.3036H121.48V33H117.993ZM119.766 6.52091C119.086 6.52091 118.5 6.28941 118.008 5.82642C117.525 5.36343 117.284 4.80686 117.284 4.1567C117.284 3.50655 117.525 2.94997 118.008 2.48698C118.5 2.02399 119.086 1.7925 119.766 1.7925C120.446 1.7925 121.027 2.02399 121.51 2.48698C122.002 2.94997 122.248 3.50655 122.248 4.1567C122.248 4.80686 122.002 5.36343 121.51 5.82642C121.027 6.28941 120.446 6.52091 119.766 6.52091ZM133.068 28.8626L132.832 30.4585C132.664 31.5815 132.408 32.7833 132.064 34.0639C131.729 35.3445 131.379 36.5512 131.014 37.6841C130.65 38.8169 130.349 39.7183 130.113 40.3881H127.453C127.581 39.7577 127.749 38.9253 127.956 37.8909C128.163 36.8566 128.369 35.6991 128.576 34.4185C128.793 33.1478 128.97 31.8475 129.108 30.5176L129.286 28.8626H133.068ZM151.705 33V2.73818H162.285C164.393 2.73818 166.131 3.10266 167.501 3.83163C168.87 4.55074 169.89 5.52105 170.559 6.74255C171.229 7.95421 171.564 9.29885 171.564 10.7765C171.564 12.0768 171.333 13.1505 170.87 13.9977C170.417 14.8449 169.816 15.5147 169.067 16.0073C168.328 16.4998 167.525 16.8643 166.659 17.1007V17.3962C167.584 17.4554 168.515 17.7804 169.451 18.3715C170.387 18.9625 171.17 19.8097 171.801 20.913C172.431 22.0163 172.746 23.3659 172.746 24.9617C172.746 26.4787 172.402 27.8431 171.712 29.0547C171.022 30.2664 169.934 31.2268 168.446 31.9361C166.959 32.6454 165.023 33 162.639 33H151.705ZM155.369 29.7492H162.639C165.033 29.7492 166.732 29.2862 167.737 28.3602C168.752 27.4244 169.259 26.2916 169.259 24.9617C169.259 23.9372 168.998 22.9915 168.476 22.1247C167.954 21.2479 167.21 20.5485 166.245 20.0264C165.279 19.4945 164.137 19.2285 162.817 19.2285H155.369V29.7492ZM155.369 16.0368H162.167C163.27 16.0368 164.265 15.8201 165.151 15.3867C166.048 14.9532 166.757 14.3425 167.279 13.5544C167.811 12.7663 168.077 11.8404 168.077 10.7765C168.077 9.44661 167.614 8.31869 166.688 7.39271C165.762 6.45688 164.294 5.98896 162.285 5.98896H155.369V16.0368ZM184.974 33.5319C183.535 33.5319 182.23 33.261 181.058 32.7193C179.886 32.1676 178.955 31.3746 178.265 30.3403C177.576 29.2961 177.231 28.0352 177.231 26.5575C177.231 25.2572 177.487 24.2032 177.999 23.3954C178.512 22.5778 179.196 21.9375 180.053 21.4745C180.91 21.0115 181.856 20.6667 182.89 20.4402C183.934 20.2037 184.984 20.0166 186.038 19.8787C187.417 19.7013 188.535 19.5684 189.392 19.4797C190.259 19.3812 190.889 19.2187 191.283 18.9921C191.687 18.7655 191.889 18.3715 191.889 17.81V17.6918C191.889 16.2338 191.49 15.101 190.692 14.2932C189.904 13.4855 188.707 13.0816 187.101 13.0816C185.437 13.0816 184.131 13.4461 183.186 14.175C182.24 14.904 181.575 15.6822 181.191 16.5097L177.881 15.3276C178.472 13.9485 179.26 12.8747 180.245 12.1063C181.24 11.3281 182.324 10.7863 183.496 10.481C184.678 10.1657 185.841 10.0081 186.983 10.0081C187.712 10.0081 188.55 10.0968 189.495 10.2741C190.451 10.4415 191.372 10.7913 192.258 11.3232C193.155 11.8551 193.899 12.658 194.49 13.7317C195.081 14.8055 195.376 16.2437 195.376 18.0464V33H191.889V29.9265H191.712C191.475 30.4191 191.081 30.9461 190.53 31.5076C189.978 32.0691 189.244 32.5469 188.328 32.9409C187.412 33.3349 186.294 33.5319 184.974 33.5319ZM185.506 30.3994C186.885 30.3994 188.047 30.1285 188.993 29.5867C189.948 29.0449 190.667 28.3455 191.15 27.4884C191.643 26.6314 191.889 25.7301 191.889 24.7844V21.5927C191.741 21.77 191.416 21.9326 190.914 22.0803C190.421 22.2182 189.85 22.3414 189.2 22.4497C188.559 22.5482 187.934 22.6369 187.323 22.7157C186.722 22.7847 186.235 22.8438 185.86 22.893C184.954 23.0112 184.107 23.2033 183.319 23.4693C182.541 23.7254 181.91 24.1145 181.427 24.6366C180.955 25.1489 180.718 25.8483 180.718 26.7349C180.718 27.9465 181.166 28.8626 182.063 29.4832C182.969 30.094 184.117 30.3994 185.506 30.3994ZM211.257 33.4728C209.07 33.4728 207.184 32.9901 205.598 32.0248C204.022 31.0495 202.805 29.6901 201.948 27.9465C201.101 26.1931 200.677 24.1539 200.677 21.8291C200.677 19.5043 201.101 17.4554 201.948 15.6822C202.805 13.8992 203.997 12.5102 205.524 11.5153C207.061 10.5105 208.853 10.0081 210.902 10.0081C212.084 10.0081 213.252 10.2051 214.404 10.5992C215.557 10.9932 216.606 11.6335 217.552 12.5201C218.497 13.3968 219.251 14.5592 219.812 16.0073C220.374 17.4554 220.655 19.2384 220.655 21.3563V22.8339H203.16V19.8196H217.108C217.108 18.5389 216.852 17.3962 216.34 16.3915C215.838 15.3867 215.119 14.5937 214.183 14.0125C213.257 13.4313 212.163 13.1407 210.902 13.1407C209.513 13.1407 208.312 13.4855 207.297 14.175C206.292 14.8547 205.519 15.7413 204.977 16.8348C204.435 17.9282 204.164 19.1004 204.164 20.3515V22.3611C204.164 24.0751 204.46 25.5281 205.051 26.7201C205.652 27.9022 206.484 28.8035 207.548 29.4241C208.612 30.0349 209.848 30.3403 211.257 30.3403C212.173 30.3403 213.001 30.2122 213.739 29.9561C214.488 29.6901 215.133 29.2961 215.675 28.774C216.217 28.242 216.636 27.582 216.931 26.794L220.3 27.7396C219.945 28.8823 219.349 29.8871 218.512 30.754C217.675 31.611 216.64 32.2809 215.409 32.7636C214.178 33.2364 212.794 33.4728 211.257 33.4728ZM230.57 2.73818L230.274 24.4889H226.846L226.55 2.73818H230.57ZM228.56 33.2364C227.831 33.2364 227.206 32.9754 226.683 32.4533C226.161 31.9312 225.9 31.3057 225.9 30.5767C225.9 29.8477 226.161 29.2222 226.683 28.7001C227.206 28.178 227.831 27.917 228.56 27.917C229.289 27.917 229.915 28.178 230.437 28.7001C230.959 29.2222 231.22 29.8477 231.22 30.5767C231.22 31.0594 231.097 31.5027 230.85 31.9066C230.614 32.3104 230.294 32.6355 229.89 32.8818C229.496 33.1182 229.053 33.2364 228.56 33.2364ZM253.38 2.73818V33H249.716V2.73818H253.38ZM263.329 2.73818V5.39791C263.329 6.20568 263.181 7.06763 262.885 7.98376C262.6 8.89004 262.176 9.77169 261.615 10.6287C261.063 11.4759 260.393 12.2147 259.605 12.8452L257.714 11.3084C258.334 10.4218 258.871 9.50079 259.324 8.54526C259.787 7.57987 260.019 6.55046 260.019 5.45702V2.73818H263.329ZM267.041 33V10.3036H270.41V13.8499H270.706C271.179 12.6383 271.942 11.6975 272.996 11.0277C274.05 10.348 275.316 10.0081 276.793 10.0081C278.291 10.0081 279.537 10.348 280.532 11.0277C281.537 11.6975 282.32 12.6383 282.881 13.8499H283.118C283.699 12.6777 284.571 11.7468 285.733 11.0572C286.896 10.3578 288.289 10.0081 289.915 10.0081C291.944 10.0081 293.604 10.6435 294.894 11.9142C296.185 13.1752 296.83 15.1404 296.83 17.81V33H293.343V17.81C293.343 16.1353 292.885 14.9385 291.969 14.2193C291.053 13.5002 289.974 13.1407 288.733 13.1407C287.137 13.1407 285.901 13.6234 285.024 14.5888C284.147 15.5443 283.709 16.7559 283.709 18.2237V33H280.162V17.4554C280.162 16.1649 279.744 15.1256 278.907 14.3376C278.069 13.5396 276.991 13.1407 275.67 13.1407C274.764 13.1407 273.917 13.382 273.129 13.8647C272.351 14.3474 271.72 15.0173 271.238 15.8743C270.765 16.7215 270.528 17.7016 270.528 18.8148V33H267.041Z" fill="#231F20"/>
<path d="M9.6 57.264C11.4773 57.1787 13.312 57.136 15.104 57.136C16.9387 57.136 18.8587 57.328 20.864 57.712C22.912 58.096 24.9173 58.8213 26.88 59.888C28.8853 60.912 30.5707 62.256 31.936 63.92C33.344 65.5413 34.4747 67.696 35.328 70.384C36.1813 73.072 36.608 76.336 36.608 80.176C36.608 84.016 35.968 87.472 34.688 90.544C33.4507 93.5733 31.744 95.8987 29.568 97.52C25.344 100.677 20.2453 102.256 14.272 102.256C12.1813 102.256 9.984 102.171 7.68 102H4.48V57.264H9.6ZM9.792 101.488C10.688 101.573 11.8187 101.616 13.184 101.616C14.5493 101.616 15.5733 101.595 16.256 101.552C16.9387 101.509 17.8773 101.339 19.072 101.04C20.2667 100.699 21.376 100.251 22.4 99.696C23.424 99.1413 24.4907 98.3307 25.6 97.264C26.752 96.1547 27.7333 94.8533 28.544 93.36C30.3787 89.8613 31.296 85.296 31.296 79.664C31.296 75.6533 30.8053 72.1973 29.824 69.296C28.8427 66.352 27.712 64.176 26.432 62.768C25.1947 61.36 23.68 60.2507 21.888 59.44C20.096 58.5867 18.6667 58.096 17.6 57.968C16.5333 57.84 15.296 57.776 13.888 57.776C12.48 57.776 11.1147 57.84 9.792 57.968V101.488ZM43.0275 70.512V70H65.2355V70.512L45.9075 101.488H61.2035C64.1475 101.488 65.9182 100.635 66.5155 98.928L66.8995 99.12C66.8995 99.2907 66.7502 99.5893 66.4515 100.016C66.1528 100.4 65.8115 100.72 65.4275 100.976C64.4035 101.659 62.9955 102 61.2035 102H41.4275V101.488L60.7555 70.512H43.0275ZM78.213 102C76.4637 102 75.1197 101.616 74.181 100.848C73.285 100.08 72.8157 99.312 72.773 98.544L72.709 97.456V70H77.189V97.456C77.189 98.6933 77.4237 99.6533 77.893 100.336C78.405 100.976 78.8957 101.317 79.365 101.36L80.133 101.488H82.117V102H78.213ZM73.093 62.832C72.581 62.32 72.325 61.68 72.325 60.912C72.325 60.144 72.581 59.504 73.093 58.992C73.605 58.4373 74.245 58.16 75.013 58.16C75.781 58.16 76.421 58.4373 76.933 58.992C77.4877 59.504 77.765 60.144 77.765 60.912C77.765 61.68 77.4877 62.32 76.933 62.832C76.421 63.344 75.781 63.6 75.013 63.6C74.245 63.6 73.605 63.344 73.093 62.832ZM91.1175 54V85.872L105.198 70H105.838L95.4055 81.776L109.166 102H104.686L92.8455 84.592L91.1175 86.576V102H86.6375V54H91.1175ZM126.159 72.752V71.408C124.239 72.176 122.49 73.7333 120.911 76.08C119.332 78.384 118.5 80.56 118.415 82.608V102H113.935V70H118.415V80.176C119.098 77.7013 120.399 75.376 122.319 73.2C124.239 70.9813 126.415 69.8293 128.847 69.744H129.103C129.956 69.744 130.66 70.0427 131.215 70.64C131.812 71.1947 132.111 71.8987 132.111 72.752C132.111 73.6053 131.812 74.3093 131.215 74.864C130.66 75.4187 129.956 75.696 129.103 75.696C128.25 75.696 127.546 75.4187 126.991 74.864C126.436 74.3093 126.159 73.6053 126.159 72.752ZM144.807 113.456C143.442 116.485 141.756 118 139.751 118C138.855 118 137.81 117.851 136.615 117.552V117.04C137.596 117.296 138.471 117.424 139.239 117.424C141.415 117.424 143.079 116.101 144.231 113.456L149.607 102H149.543L137.639 70H142.119L152.039 96.688L161.831 76.4C162.343 75.504 162.599 74.4373 162.599 73.2C162.599 71.9627 162.258 71.024 161.575 70.384L161.959 70C162.13 70.0853 162.343 70.3413 162.599 70.768C162.898 71.1947 163.068 71.5787 163.111 71.92C163.196 72.2613 163.239 72.5813 163.239 72.88C163.239 74.032 162.983 75.2053 162.471 76.4L150.183 102L144.807 113.456ZM212.721 59.888C208.838 58.3947 205.169 57.648 201.713 57.648C198.3 57.648 195.633 58.3733 193.713 59.824C191.793 61.2747 190.833 63.28 190.833 65.84C190.833 68.9547 192.454 71.3653 195.697 73.072C197.148 73.7973 198.726 74.48 200.433 75.12C202.182 75.7173 203.932 76.4 205.681 77.168C207.43 77.936 209.03 78.8107 210.481 79.792C211.932 80.7733 213.105 82.1387 214.001 83.888C214.897 85.5947 215.345 87.792 215.345 90.48C215.345 93.1253 214.598 95.3867 213.105 97.264C211.612 99.1413 209.798 100.421 207.665 101.104C205.574 101.744 203.121 102.064 200.305 102.064C195.057 102.064 190.577 100.763 186.865 98.16L187.185 97.648C188.593 98.7573 190.406 99.6747 192.625 100.4C194.886 101.083 197.19 101.424 199.537 101.424C202.993 101.424 205.937 100.635 208.369 99.056C210.844 97.4347 212.081 95.0667 212.081 91.952C212.081 88.5387 210.46 85.872 207.217 83.952C205.766 83.0987 204.166 82.3093 202.417 81.584C200.71 80.8587 198.982 80.112 197.233 79.344C195.484 78.5333 193.884 77.6373 192.433 76.656C189.19 74.5227 187.569 71.4933 187.569 67.568C187.569 64.4533 188.614 61.936 190.705 60.016C192.796 58.0533 195.932 57.072 200.113 57.072C204.337 57.072 208.625 57.7973 212.977 59.248L212.721 59.888ZM226.745 113.456C225.379 116.485 223.694 118 221.689 118C220.793 118 219.747 117.851 218.553 117.552V117.04C219.534 117.296 220.409 117.424 221.177 117.424C223.353 117.424 225.017 116.101 226.169 113.456L231.545 102H231.481L219.577 70H224.057L233.977 96.688L243.769 76.4C244.281 75.504 244.537 74.4373 244.537 73.2C244.537 71.9627 244.195 71.024 243.513 70.384L243.897 70C244.067 70.0853 244.281 70.3413 244.537 70.768C244.835 71.1947 245.006 71.5787 245.049 71.92C245.134 72.2613 245.177 72.5813 245.177 72.88C245.177 74.032 244.921 75.2053 244.409 76.4L232.121 102L226.745 113.456ZM275.18 102C272.278 102 270.294 101.445 269.228 100.336C268.246 99.3973 267.756 98.5867 267.756 97.904V96.56C265.665 100.357 262.316 102.256 257.708 102.256C252.332 102.256 249.281 99.824 248.556 94.96C248.47 94.448 248.428 93.936 248.428 93.424C248.428 92.8693 248.513 92.272 248.684 91.632C248.854 90.992 249.345 90.288 250.156 89.52C251.777 87.984 255.34 87.0453 260.844 86.704C262.209 86.576 263.468 86.512 264.62 86.512C265.772 86.512 266.817 86.5547 267.756 86.64V76.016C267.67 75.9733 267.67 75.7813 267.756 75.44C267.841 75.056 267.756 74.5867 267.5 74.032C267.286 73.4347 266.988 72.8587 266.604 72.304C266.22 71.7493 265.537 71.28 264.556 70.896C263.574 70.4693 262.294 70.256 260.716 70.256C259.137 70.256 257.281 70.5547 255.148 71.152C253.057 71.7067 251.521 72.2613 250.54 72.816L250.284 72.368C254.081 70.6187 257.942 69.744 261.868 69.744C266.262 69.744 269.164 70.5333 270.572 72.112C271.681 73.3493 272.236 74.6507 272.236 76.016V97.456C272.236 98.6933 272.47 99.6533 272.94 100.336C273.452 100.976 273.964 101.317 274.476 101.36L275.18 101.488H277.164V102H275.18ZM258.732 101.744C260.993 101.744 263.02 100.976 264.812 99.44C266.646 97.8613 267.628 96.3467 267.756 94.896V87.152C266.604 87.0667 265.43 87.024 264.236 87.024C263.084 87.024 261.932 87.088 260.78 87.216C257.537 87.6 255.425 88.3253 254.444 89.392C253.462 90.4587 252.972 91.9307 252.972 93.808C252.972 94.1493 252.993 94.5333 253.036 94.96C253.42 99.4827 255.318 101.744 258.732 101.744ZM307.565 102C305.816 102 304.472 101.616 303.533 100.848C302.637 100.08 302.168 99.312 302.125 98.544L302.061 97.456V77.36C302.061 73.9893 301.165 71.8347 299.373 70.896C298.52 70.4693 297.432 70.256 296.109 70.256C293.464 70.256 291.074 71.344 288.941 73.52C286.85 75.6533 285.805 77.5733 285.805 79.28V102H281.325V54.064H285.805V77.296C286.488 75.4613 287.789 73.7547 289.709 72.176C291.629 70.5547 293.784 69.744 296.173 69.744C300.312 69.744 303.064 70.4693 304.429 71.92C305.837 73.328 306.541 75.1627 306.541 77.424V97.456C306.541 98.6933 306.776 99.6533 307.245 100.336C307.757 100.976 308.248 101.317 308.717 101.36L309.485 101.488H311.469V102H307.565ZM327.222 72.752V71.408C325.302 72.176 323.552 73.7333 321.974 76.08C320.395 78.384 319.563 80.56 319.478 82.608V102H314.998V70H319.478V80.176C320.16 77.7013 321.462 75.376 323.382 73.2C325.302 70.9813 327.478 69.8293 329.91 69.744H330.166C331.019 69.744 331.723 70.0427 332.278 70.64C332.875 71.1947 333.174 71.8987 333.174 72.752C333.174 73.6053 332.875 74.3093 332.278 74.864C331.723 75.4187 331.019 75.696 330.166 75.696C329.312 75.696 328.608 75.4187 328.054 74.864C327.499 74.3093 327.222 73.6053 327.222 72.752ZM342.478 94.64C342.478 98.0107 343.374 100.165 345.166 101.104C346.019 101.531 347.107 101.744 348.43 101.744C351.118 101.744 353.507 100.72 355.598 98.672C357.731 96.624 358.883 94.7253 359.054 92.976V70H363.534V97.456C363.534 98.6933 363.768 99.6533 364.238 100.336C364.75 100.976 365.262 101.317 365.774 101.36L366.478 101.488H368.462V102H364.558C362.808 102 361.464 101.616 360.526 100.848C359.63 100.08 359.16 99.312 359.118 98.544L359.054 97.456V94.704C358.286 96.5387 356.92 98.2667 354.958 99.888C352.995 101.467 350.84 102.256 348.494 102.256C346.19 102.256 344.291 102.043 342.798 101.616C341.347 101.147 340.302 100.507 339.661 99.696C338.552 98.3733 337.998 96.6667 337.998 94.576V70H342.478V94.64ZM379.813 102C376.058 102 373.69 101.019 372.709 99.056C372.496 98.6293 372.389 98.2453 372.389 97.904V54.064H376.869V97.456C376.869 98.6933 377.104 99.6533 377.573 100.336C378.085 100.976 378.597 101.317 379.109 101.36L379.813 101.488H381.797V102H379.813Z" fill="#231F20"/>
</svg>
